<svg clip-rule="evenodd" fill-rule="evenodd" stroke-linejoin="round" stroke-miterlimit="2" width="727" height="249" viewBox="0 0 727 249" xmlns="http://www.w3.org/2000/svg" xmlns:xlink="http://www.w3.org/1999/xlink"><radialGradient id="a" cx="325.709" cy="299.925" gradientUnits="userSpaceOnUse" r="97.0118"><stop offset="0" stop-color="#814849"/><stop offset=".09" stop-color="#814849"/><stop offset="1" stop-color="#f9b48b"/></radialGradient><linearGradient id="b"><stop offset="0" stop-color="#f9b48b"/><stop offset="1" stop-color="#814849"/></linearGradient><linearGradient id="c" gradientTransform="matrix(-119.841 0 0 -119.841 313.067 401.633)" gradientUnits="userSpaceOnUse" x1="0" x2="1" xlink:href="#b" y1="0" y2="0"/><linearGradient id="d" gradientUnits="userSpaceOnUse" x1="266.859" x2="397.28" xlink:href="#b" y1="354.154" y2="354.154"/><g transform="translate(-176.8 -176.1)"><path d="m337.4 289.4c3.7-9.4 5.7-19.5 5.7-30.2 0-45.9-37.2-83.1-83.1-83.1s-83.1 37.2-83.1 83.1h39.6c0-24 19.5-43.6 43.6-43.6s43.6 19.5 43.6 43.6c0 11.1-4.2 21.3-11.1 29 6.2-.9 12.5-1.4 18.9-1.4 8.8.1 17.5 1 25.9 2.6z" fill="url(#a)" fill-rule="nonzero"/><circle cx="493.3" cy="400" fill="#f9b48b" r="24.4"/><g fill-rule="nonzero"><path d="m808.2 234.5c-52.4 0-95 42.5-95 95s42.5 95 95 95c52.4 0 95-42.5 95-95s-42.6-95-95-95zm0 150.3c-30.5 0-55.4-24.8-55.4-55.4s24.8-55.4 55.4-55.4c30.5 0 55.4 24.8 55.4 55.4s-24.9 55.4-55.4 55.4z" fill="#f9b48b"/><path d="m617 274c20.5 0 38.4 11.2 47.9 27.7l34.3-19.8c-16.4-28.4-47.1-47.5-82.2-47.5-52.4 0-95 42.5-95 95s42.5 95 95 95c35.1 0 65.8-19.1 82.2-47.5l-34.2-19.8c-9.6 16.5-27.5 27.7-47.9 27.7-30.5 0-55.4-24.8-55.4-55.4s24.8-55.4 55.3-55.4z" fill="#f9b48b"/><path d="m343 421.4v-39.6h-118c-5.6 12.3-8.6 25.7-8.6 39.6z" fill="url(#c)"/><path d="m337.4 289.4c-8.4-1.7-17.1-2.5-26.1-2.5-6.4 0-12.8.5-18.9 1.4-65.3 9.2-115.6 65.3-115.6 133.2h39.6c0-13.9 3-27.3 8.6-39.6 4.6-10.1 11.1-19.5 19.2-27.6 17.9-17.9 41.8-27.8 67.1-27.8 25.4 0 49.2 9.9 67.1 27.8s27.8 41.8 27.8 67.1v-95.3c-18.4-18.4-42.2-31.4-68.8-36.7z" fill="url(#d)"/><path d="m366.8 215.7h39.5v205.7h39.6v-245.3h-79.1z" fill="#f9b48b"/></g></g></svg>
